<!-- Image source: https://www.svgrepo.com/svg/159891/circuit -->
<svg height="27" version="1.1" id="Layer_1" xmlns="http://www.w3.org/2000/svg" xmlns:xlink="http://www.w3.org/1999/xlink" x="0px" y="0px" viewBox="0 0 224 224" style="enable-background:new 0 0 224 224;" xml:space="preserve">
  <g>
    <path d="M200,122c-11.869,0-21.725,8.668-23.639,20H160c-13.234,0-24,10.76-24,23.986V210h8v-44.014
      c0-8.814,7.178-15.986,16-15.986h16.361c1.913,11.332,11.77,20,23.639,20c13.234,0,24-10.766,24-24S213.234,122,200,122z
      M200,162c-8.822,0-16-7.178-16-16s7.178-16,16-16s16,7.178,16,16S208.822,162,200,162z" />
    <path d="M92,62H76c0-13.234-10.766-24-24-24S28,48.766,28,62s10.766,24,24,24c10.426,0,19.295-6.693,22.6-16H92
      c8.822,0,16,7.188,16,16.024V210h8V86.024C116,72.777,105.234,62,92,62z M52,78c-8.822,0-16-7.178-16-16s7.178-16,16-16
      s16,7.178,16,16S60.822,78,52,78z" />
    <path d="M64,122H47.639c-1.914-11.332-11.77-20-23.639-20c-13.234,0-24,10.766-24,24s10.766,24,24,24
      c11.869,0,21.725-8.668,23.639-20H64c8.822,0,16,7.184,16,16.014V210h8v-63.986C88,132.774,77.234,122,64,122z M24,142
      c-8.822,0-16-7.178-16-16s7.178-16,16-16s16,7.178,16,16C40,134.822,32.822,142,24,142z" />
    <path d="M163.461,94h12.9c1.913,11.332,11.77,20,23.639,20c13.234,0,24-10.766,24-24s-10.766-24-24-24
      c-11.869,0-21.725,8.668-23.639,20h-12.9c-6.297,0-11.42-5.125-11.42-11.426V14h-8v60.574C144.041,85.285,152.752,94,163.461,94z
      M200,74c8.822,0,16,7.178,16,16s-7.178,16-16,16s-16-7.178-16-16S191.178,74,200,74z" />
  </g>
</svg>
