<?xml version="1.0" standalone="no"?>
<!DOCTYPE svg PUBLIC "-//W3C//DTD SVG 20010904//EN"
 "http://www.w3.org/TR/2001/REC-SVG-20010904/DTD/svg10.dtd">
<svg version="1.0" xmlns="http://www.w3.org/2000/svg"
 width="700.000000pt" height="700.000000pt" viewBox="0 0 700.000000 700.000000"
 preserveAspectRatio="xMidYMid meet">
<metadata>
Created by potrace 1.11, written by Peter Selinger 2001-2013
</metadata>
<g transform="translate(0.000000,700.000000) scale(0.100000,-0.100000)"
fill="#000000" stroke="none">
<path d="M6101 6276 l-275 -275 -35 16 c-99 42 -242 54 -342 28 -246 -65 -388
-298 -345 -569 7 -47 7 -48 -16 -43 -21 5 -158 27 -278 43 -91 12 -593 12
-680 -1 -47 -7 -110 -16 -140 -19 -148 -17 -400 -76 -567 -131 -102 -34 -263
-97 -295 -115 -10 -6 -23 -10 -28 -10 -32 0 -417 -191 -570 -282 -283 -170
-437 -271 -638 -421 -137 -102 -489 -381 -507 -401 -5 -7 -28 -25 -50 -41 -22
-17 -46 -38 -54 -48 -7 -10 -20 -16 -28 -13 -8 3 -12 2 -9 -3 5 -7 -47 -61
-59 -61 -3 0 -21 -16 -42 -35 -20 -19 -40 -32 -43 -30 -4 3 -10 -5 -14 -17 -5
-22 -6 -22 -21 -3 -13 17 -14 17 -9 2 5 -13 -4 -28 -27 -50 -18 -18 -29 -26
-25 -19 4 6 2 12 -3 12 -6 0 -11 -6 -11 -14 0 -19 -25 -27 -41 -13 -7 7 -5 2
5 -10 11 -13 14 -23 8 -23 -6 0 -14 5 -17 10 -8 13 -25 3 -25 -13 0 -8 3 -8 9
2 6 9 11 10 15 2 4 -6 4 -11 0 -11 -3 0 1 -12 11 -26 11 -17 12 -23 4 -18 -8
5 -17 9 -21 9 -3 0 -10 4 -15 9 -5 5 -2 6 7 1 8 -4 5 2 -8 14 -12 12 -19 27
-16 33 4 7 2 8 -4 4 -9 -5 -8 -15 3 -36 14 -27 14 -30 -4 -39 -10 -6 -21 -7
-25 -4 -3 3 -6 3 -6 0 0 -3 10 -11 21 -18 17 -9 20 -8 14 2 -5 8 -4 10 3 5 18
-11 14 -28 -5 -25 -25 4 -73 -10 -70 -20 1 -4 -42 -52 -95 -106 -54 -53 -95
-102 -91 -108 3 -6 1 -7 -5 -3 -27 16 -126 -128 -159 -231 -34 -109 -44 -207
-30 -288 21 -119 54 -195 251 -566 54 -102 63 -133 91 -299 12 -68 25 -121 45
-172 22 -57 19 -64 -38 -111 -12 -10 -22 -24 -22 -30 0 -7 36 -48 81 -92 l80
-80 24 27 24 28 57 -68 c115 -134 489 -497 526 -511 5 -2 -3 -16 -18 -32 l-28
-29 79 -80 c44 -44 84 -80 89 -80 5 0 18 10 30 23 57 59 57 59 117 36 29 -12
123 -34 206 -50 156 -28 210 -49 358 -136 88 -51 228 -120 305 -151 128 -50
227 -66 319 -51 25 4 64 11 86 14 57 10 90 25 175 83 76 53 340 304 340 325 0
7 4 6 10 -3 8 -13 10 -12 10 3 0 9 -4 17 -10 17 -5 0 -10 5 -10 10 0 10 41 7
59 -4 5 -3 7 3 4 14 -3 12 0 20 6 20 7 0 9 -5 5 -12 -4 -7 -3 -8 5 -4 6 4 9
11 6 16 -3 5 -1 11 5 15 5 3 10 1 10 -4 0 -6 5 -11 11 -11 8 0 8 4 0 14 -9 11
-5 18 21 35 18 11 28 21 21 21 -6 0 -15 -5 -18 -10 -4 -7 -12 -7 -25 0 -13 7
-21 7 -25 0 -3 -5 2 -10 11 -10 10 0 14 -3 10 -7 -4 -5 -12 -8 -17 -8 -5 0 -9
-3 -9 -7 0 -17 -35 -44 -42 -34 -5 7 -8 7 -8 -2 0 -10 -3 -10 -14 0 -17 16 2
32 20 17 9 -7 16 -4 25 13 8 13 14 25 15 28 0 3 4 13 9 23 6 15 10 16 16 5 7
-11 11 -10 19 2 5 8 10 10 10 3 0 -6 9 -9 20 -6 12 3 18 8 15 11 -2 3 0 11 6
18 8 10 17 11 33 3 19 -9 19 -9 4 4 -22 17 -23 27 -3 27 8 0 14 6 12 13 -1 6
4 11 11 10 6 -2 12 4 12 12 0 8 5 15 12 15 6 0 8 3 5 7 -4 3 5 16 18 29 14 13
25 27 25 31 0 5 8 15 18 24 9 8 31 32 47 53 17 21 35 44 40 50 6 6 33 38 60
71 28 33 58 69 67 80 22 26 226 282 256 321 303 392 601 884 742 1220 23 54
45 108 50 119 69 152 163 434 195 585 2 8 8 35 14 60 5 25 13 68 17 95 3 28 8
53 10 57 2 3 7 33 10 65 4 32 12 99 19 148 13 91 14 587 1 670 -3 22 -8 60
-12 85 -11 91 -15 116 -24 169 -6 30 -10 56 -10 57 0 1 15 -2 33 -7 57 -15
150 -16 222 -2 145 30 264 121 326 253 63 132 67 265 14 405 l-23 60 276 277
277 278 -85 85 c-46 47 -87 85 -90 85 -3 0 -129 -123 -279 -274z m-1011 -1950
c0 -3 -4 -8 -10 -11 -5 -3 -10 -1 -10 4 0 6 5 11 10 11 6 0 10 -2 10 -4z
m-4089 -587 c-12 -10 -22 -20 -21 -23 1 -23 -1 -25 -14 -14 -11 11 -11 15 3
25 9 7 12 13 6 13 -16 1 14 17 32 17 13 0 11 -4 -6 -18z m84 -8 c3 -5 2 -12
-3 -15 -5 -3 -9 1 -9 9 0 17 3 19 12 6z m-73 -28 c-6 -2 -9 -10 -6 -15 4 -7 2
-8 -5 -4 -13 9 -5 26 12 25 9 0 8 -2 -1 -6z m232 -21 c3 -5 -1 -9 -9 -9 -8 0
-12 4 -9 9 3 4 7 8 9 8 2 0 6 -4 9 -8z m-302 -24 c-12 -12 -35 -1 -27 12 3 5
13 6 21 3 10 -4 12 -9 6 -15z m18 -13 c-7 -8 -17 -15 -23 -15 -6 0 -2 7 9 15
25 19 30 19 14 0z m2734 -2603 c3 -5 -1 -9 -9 -9 -8 0 -12 4 -9 9 3 4 7 8 9 8
2 0 6 -4 9 -8z m56 -2 c0 -5 -4 -10 -10 -10 -5 0 -10 5 -10 10 0 6 5 10 10 10
6 0 10 -4 10 -10z m-63 -47 c1 -22 -1 -24 -8 -10 -6 9 -7 22 -4 27 9 14 10 13
12 -17z m-22 -23 c-3 -5 -14 -10 -23 -9 -14 0 -13 2 3 9 27 11 27 11 20 0z"/>
<path d="M1026 3818 c3 -5 10 -6 15 -3 13 9 11 12 -6 12 -8 0 -12 -4 -9 -9z"/>
<path d="M878 3683 c7 -3 16 -2 19 1 4 3 -2 6 -13 5 -11 0 -14 -3 -6 -6z"/>
<path d="M3766 942 c-3 -5 1 -9 9 -9 8 0 12 4 9 9 -3 4 -7 8 -9 8 -2 0 -6 -4
-9 -8z"/>
</g>
</svg>
